<?xml version="1.0" standalone="no"?>
<!DOCTYPE svg PUBLIC "-//W3C//DTD SVG 20010904//EN"
 "http://www.w3.org/TR/2001/REC-SVG-20010904/DTD/svg10.dtd">
<svg version="1.0" xmlns="http://www.w3.org/2000/svg"
 width="64.000000pt" height="64.000000pt" viewBox="0 0 512.000000 512.000000"
 preserveAspectRatio="xMidYMid meet">

<g transform="translate(0.000000,512.000000) scale(0.100000,-0.100000)"
fill="#00b154;" stroke="none">
<path d="M2505 4951 c-111 -29 -179 -116 -179 -231 0 -62 14 -103 56 -161 9
-13 7 -72 -8 -255 l-19 -239 -85 -17 c-199 -41 -403 -126 -558 -231 l-82 -57
-254 198 c-240 187 -254 199 -265 240 -23 87 -110 137 -193 113 -53 -16 -93
-56 -109 -109 -24 -83 26 -170 113 -193 41 -11 53 -25 240 -265 l198 -254 -56
-81 c-62 -91 -151 -271 -183 -369 -11 -36 -31 -112 -44 -170 l-22 -105 -239
-19 c-183 -15 -242 -17 -255 -8 -114 81 -249 75 -332 -15 -46 -49 -63 -93 -63
-163 0 -138 96 -234 234 -234 62 0 103 14 161 56 13 9 72 7 255 -8 l239 -19
22 -105 c13 -58 33 -134 44 -170 32 -98 121 -278 183 -369 l56 -81 -198 -254
c-187 -240 -199 -254 -240 -265 -120 -32 -159 -180 -70 -263 89 -83 228 -44
259 74 11 41 25 53 266 241 l254 198 47 -34 c149 -109 360 -202 556 -246 l121
-27 19 -238 c15 -183 17 -242 8 -255 -42 -58 -56 -99 -56 -161 0 -98 45 -170
134 -216 47 -24 153 -24 200 0 144 74 178 237 78 377 -9 13 -7 72 8 255 l19
238 121 27 c196 44 407 137 556 246 l47 34 254 -198 c241 -188 255 -200 266
-242 14 -52 58 -96 112 -112 78 -24 165 26 190 109 24 83 -26 170 -113 193
-41 11 -53 25 -241 266 l-198 254 34 47 c109 149 202 360 246 556 l27 121 238
19 c183 15 242 17 255 8 58 -42 99 -56 161 -56 138 0 234 96 234 234 0 138
-96 234 -234 234 -62 0 -103 -14 -161 -56 -12 -8 -74 -6 -255 8 l-238 19 -27
120 c-43 193 -118 370 -224 524 l-55 81 198 254 c187 240 199 254 240 265 87
23 137 110 113 193 -16 53 -56 93 -109 109 -83 24 -170 -26 -193 -113 -11 -41
-25 -53 -266 -241 l-254 -197 -62 44 c-150 106 -347 192 -542 235 l-120 27
-19 238 c-15 183 -17 242 -8 255 42 58 56 99 56 161 0 95 -44 169 -125 210
-42 22 -121 32 -164 21z"/>
</g>
</svg>
